# xmcd
#
# Track frame offsets: 
#        150
#        22274
#        37435
#        54056
#        73608
#        89978
#        115702
#        136024
#        155746
#        176018
#        199938
#        223265
#
# Disc length: 3321 seconds
#
# Revision: 0
# Processed by: cddbd v1.5.2PL0 Copyright (c) Steve Scherf et al.
# Submitted via: ExactAudioCopy v0.99pb5
#
DISCID=ba0cf70c
DTITLE=Various Artist - Bechstein Boogie Woogie
DYEAR=2008
DGENRE=Blues
TTITLE0=Schlechter_Brackmann_Rausch - Colors Of The Blues
TTITLE1=Schlechter_Brackmann_Rausch - Third Of Three
TTITLE2=Brackmann - Der Geschmack Von Honig
TTITLE3=Brackmann - Bechstein Smooth
TTITLE4=Brackmann - Theme From BoogieHouse Jam
TTITLE5=Rausch - Thundertrain
TTITLE6=Rausch - Jump'n Jive
TTITLE7=Rausch - Honky Tonk Train Blues
TTITLE8=Schlechter - Sunshine B.
TTITLE9=Schlechter - Grooving The D280
TTITLE10=Schlechter - My Way To New Orleans
TTITLE11=Schlechter_Brackmann_Rausch - The Sheik Of Araby
EXTD=
EXTT0=
EXTT1=
EXTT2=
EXTT3=
EXTT4=
EXTT5=
EXTT6=
EXTT7=
EXTT8=
EXTT9=
EXTT10=
EXTT11=
PLAYORDER=
